<?xml version="1.0" encoding="utf-8"?>
<!-- Generator: Adobe Illustrator 16.0.0, SVG Export Plug-In . SVG Version: 6.00 Build 0)  -->
<!DOCTYPE svg PUBLIC "-//W3C//DTD SVG 1.1//EN" "http://www.w3.org/Graphics/SVG/1.1/DTD/svg11.dtd">
<svg version="1.1" id="Layer_1" xmlns="http://www.w3.org/2000/svg" xmlns:xlink="http://www.w3.org/1999/xlink" x="0px" y="0px"
	 width="144px" height="72px" viewBox="0 0 144 72" enable-background="new 0 0 144 72" xml:space="preserve">
<g>
	<g>
		<g>
			
				<ellipse transform="matrix(0.975 0.2224 -0.2224 0.975 5.269 -16.6934)" fill="#EFEFF0" cx="76.755" cy="15.048" rx="3.387" ry="13.875"/>
			
				<ellipse transform="matrix(0.9556 -0.2948 0.2948 0.9556 -1.6916 19.9831)" fill="#EFEFF0" cx="65.427" cy="15.602" rx="3.387" ry="13.875"/>
			
				<ellipse transform="matrix(0.6802 -0.7331 0.7331 0.6802 1.5004 48.3324)" fill="#EFEFF0" cx="56.138" cy="22.447" rx="3.387" ry="13.875"/>
			
				<ellipse transform="matrix(0.2225 -0.9749 0.9749 0.2225 8.2601 78.6875)" fill="#EFEFF0" cx="53.466" cy="34.165" rx="3.387" ry="13.875"/>
			
				<ellipse transform="matrix(-0.2947 -0.9556 0.9556 -0.2947 27.3819 111.5831)" fill="#EFEFF0" cx="54.872" cy="45.686" rx="3.387" ry="13.874"/>
			<path fill="#EFEFF0" d="M58.93,51.599c5.212-5.618,10.547-9.142,11.917-7.871c1.373,1.274-1.74,6.857-6.952,12.478
				c-5.211,5.615-10.547,9.142-11.917,7.869C50.605,62.801,53.719,57.217,58.93,51.599z"/>
			
				<ellipse transform="matrix(-0.845 -0.5347 0.5347 -0.845 147.5309 83.2187)" fill="#EFEFF0" cx="85.824" cy="20.231" rx="3.386" ry="13.876"/>
			
				<ellipse transform="matrix(-0.4644 -0.8856 0.8856 -0.4644 112.6668 123.2979)" fill="#EFEFF0" cx="93.617" cy="27.58" rx="3.387" ry="13.876"/>
			
				<ellipse transform="matrix(0.0402 -0.9992 0.9992 0.0402 53.684 131.4838)" fill="#EFEFF0" cx="95.284" cy="37.798" rx="3.387" ry="13.874"/>
			
				<ellipse transform="matrix(0.5343 -0.8453 0.8453 0.5343 1.7197 99.6655)" fill="#EFEFF0" cx="91.312" cy="48.272" rx="3.387" ry="13.875"/>
			<path fill="#EFEFF0" d="M86.531,53.978c-3.56-6.786-7.785-11.584-9.441-10.717c-1.658,0.874-0.115,7.075,3.443,13.863
				c3.561,6.786,7.788,11.582,9.443,10.714C91.636,66.97,90.092,60.763,86.531,53.978z"/>
			
				<ellipse transform="matrix(0.9992 0.0404 -0.0404 0.9992 2.3833 -2.9026)" fill="#EFEFF0" cx="73.065" cy="57.563" rx="3.387" ry="13.874"/>
		</g>
		<g>
			
				<ellipse transform="matrix(0.994 -0.1094 0.1094 0.994 -1.3302 7.7896)" fill="#FFFFFF" cx="70.306" cy="16.014" rx="3.387" ry="13.876"/>
			
				<ellipse transform="matrix(0.8062 -0.5917 0.5917 0.8062 -0.393 39.3005)" fill="#FFFFFF" cx="59.786" cy="20.25" rx="3.387" ry="13.876"/>
			
				<ellipse transform="matrix(0.4023 -0.9155 0.9155 0.4023 4.5814 66.542)" fill="#FFFFFF" cx="53.254" cy="29.762" rx="3.387" ry="13.874"/>
			
				<ellipse transform="matrix(-0.1092 -0.994 0.994 -0.1092 19.0712 100.5065)" fill="#FFFFFF" cx="54.57" cy="41.708" rx="3.386" ry="13.875"/>
			<path fill="#FFFFFF" d="M57.672,49.401c6.176-4.532,12.081-6.987,13.186-5.482c1.107,1.511-3.001,6.407-9.179,10.944
				c-6.177,4.535-12.081,6.99-13.187,5.482C47.383,58.835,51.494,53.938,57.672,49.401z"/>
			
				<ellipse transform="matrix(-0.9155 -0.4023 0.4023 -0.9155 108.0708 138.1942)" fill="#FFFFFF" cx="68.547" cy="57.749" rx="3.386" ry="13.874"/>
			
				<ellipse transform="matrix(-0.9736 -0.2282 0.2282 -0.9736 154.9297 53.7862)" fill="#FFFFFF" cx="80.574" cy="17.938" rx="3.386" ry="13.876"/>
			<path fill="#FFFFFF" d="M87.875,20.009c-5.242,5.587-8.39,11.154-7.026,12.435c1.364,1.28,6.721-2.211,11.965-7.799
				c5.247-5.587,8.392-11.155,7.029-12.435C98.478,10.93,93.121,14.422,87.875,20.009z"/>
			
				<ellipse transform="matrix(-0.2896 -0.9571 0.9571 -0.2896 92.7761 131.7234)" fill="#FFFFFF" cx="95.269" cy="31.434" rx="3.387" ry="13.875"/>
			
				<ellipse transform="matrix(0.2279 -0.9737 0.9737 0.2279 31.8028 125.3683)" fill="#FFFFFF" cx="94.951" cy="42.631" rx="3.387" ry="13.875"/>
			<path fill="#FFFFFF" d="M92.304,49.589c-5.587-5.244-11.153-8.392-12.433-7.029c-1.28,1.367,2.21,6.722,7.798,11.969
				c5.586,5.244,11.151,8.388,12.432,7.026C101.383,60.189,97.892,54.83,92.304,49.589z"/>
			<path fill="#FFFFFF" d="M83.997,56.41c-2.217-7.331-5.464-12.842-7.253-12.302c-1.792,0.543-1.446,6.927,0.77,14.263
				c2.217,7.334,5.465,12.845,7.255,12.302C86.561,70.132,86.214,63.749,83.997,56.41z"/>
		</g>
	</g>
	<circle fill="#FBEF4F" cx="74.001" cy="36.593" r="8.822"/>
</g>
<g>
	<g>
		<g>
			
				<ellipse transform="matrix(0.975 0.2223 -0.2223 0.975 6.9202 -6.0109)" fill="#BEBFD9" cx="30.163" cy="27.736" rx="2.583" ry="10.583"/>
			
				<ellipse transform="matrix(0.9555 -0.2949 0.2949 0.9555 -7.3463 7.5988)" fill="#BEBFD9" cx="21.523" cy="28.158" rx="2.583" ry="10.584"/>
			
				<ellipse transform="matrix(0.6802 -0.733 0.733 0.6802 -19.8506 21.2554)" fill="#BEBFD9" cx="14.437" cy="33.38" rx="2.583" ry="10.584"/>
			
				<ellipse transform="matrix(0.2225 -0.9749 0.9749 0.2225 -31.6164 44.9912)" fill="#BEBFD9" cx="12.399" cy="42.317" rx="2.583" ry="10.583"/>
			
				<ellipse transform="matrix(-0.2947 -0.9556 0.9556 -0.2947 -31.396 79.0372)" fill="#BEBFD9" cx="13.471" cy="51.105" rx="2.583" ry="10.583"/>
			<path fill="#BEBFD9" d="M16.566,55.615c3.976-4.285,8.044-6.973,9.089-6.004c1.047,0.973-1.327,5.23-5.302,9.518
				c-3.975,4.283-8.045,6.973-9.09,6.002C10.217,64.16,12.592,59.9,16.566,55.615z"/>
			
				<ellipse transform="matrix(-0.845 -0.5348 0.5348 -0.845 51.4661 78.2977)" fill="#BEBFD9" cx="37.081" cy="31.69" rx="2.583" ry="10.584"/>
			
				<ellipse transform="matrix(-0.4645 -0.8856 0.8856 -0.4645 29.9813 92.7209)" fill="#BEBFD9" cx="43.024" cy="37.296" rx="2.584" ry="10.583"/>
			
				<ellipse transform="matrix(0.0405 -0.9992 0.9992 0.0405 -2.5484 87.5241)" fill="#BEBFD9" cx="44.295" cy="45.089" rx="2.583" ry="10.582"/>
			
				<ellipse transform="matrix(0.5342 -0.8454 0.8454 0.5342 -25.6483 59.6079)" fill="#BEBFD9" cx="41.266" cy="53.078" rx="2.583" ry="10.583"/>
			<path fill="#BEBFD9" d="M37.619,57.43c-2.715-5.176-5.938-8.836-7.201-8.174c-1.264,0.666-0.088,5.396,2.627,10.574
				c2.715,5.176,5.939,8.834,7.203,8.172C41.513,67.34,40.335,62.605,37.619,57.43z"/>
			
				<ellipse transform="matrix(0.9992 0.0405 -0.0405 0.9992 2.4561 -1.057)" fill="#BEBFD9" cx="27.348" cy="60.165" rx="2.583" ry="10.582"/>
		</g>
		<g>
			
				<ellipse transform="matrix(0.994 -0.1092 0.1092 0.994 -2.9594 2.928)" fill="#BDCDEA" cx="25.244" cy="28.474" rx="2.584" ry="10.584"/>
			
				<ellipse transform="matrix(0.8063 -0.5916 0.5916 0.8063 -15.4188 16.3288)" fill="#BDCDEA" cx="17.22" cy="31.704" rx="2.584" ry="10.585"/>
			
				<ellipse transform="matrix(0.4025 -0.9154 0.9154 0.4025 -28.3528 34.4798)" fill="#BDCDEA" cx="12.237" cy="38.96" rx="2.584" ry="10.583"/>
			
				<ellipse transform="matrix(-0.1093 -0.994 0.994 -0.1093 -33.0954 66.4859)" fill="#BDCDEA" cx="13.241" cy="48.071" rx="2.583" ry="10.582"/>
			<path fill="#BDCDEA" d="M15.607,53.939c4.711-3.457,9.214-5.33,10.056-4.182c0.846,1.152-2.289,4.887-7,8.348
				c-4.712,3.459-9.215,5.332-10.059,4.182C7.76,61.135,10.895,57.4,15.607,53.939z"/>
			
				<ellipse transform="matrix(-0.9155 -0.4022 0.4022 -0.9155 21.5275 125.1338)" fill="#BDCDEA" cx="23.902" cy="60.307" rx="2.583" ry="10.583"/>
			
				<ellipse transform="matrix(-0.9736 -0.2282 0.2282 -0.9736 58.4447 66.6391)" fill="#BDCDEA" cx="33.075" cy="29.941" rx="2.583" ry="10.584"/>
			
				<ellipse transform="matrix(-0.7291 -0.6844 0.6844 -0.7291 47.2974 85.2963)" fill="#BDCDEA" cx="40.528" cy="33.289" rx="2.584" ry="10.584"/>
			
				<ellipse transform="matrix(-0.2896 -0.9572 0.9572 -0.2896 18.5974 94.2723)" fill="#BDCDEA" cx="44.285" cy="40.234" rx="2.583" ry="10.583"/>
			
				<ellipse transform="matrix(0.228 -0.9737 0.9737 0.228 -13.49 80.5386)" fill="#BDCDEA" cx="44.042" cy="48.776" rx="2.583" ry="10.583"/>
			
				<ellipse transform="matrix(0.6843 -0.7292 0.7292 0.6843 -28.1022 47.0268)" fill="#BDCDEA" cx="40.255" cy="55.966" rx="2.583" ry="10.585"/>
			<path fill="#BDCDEA" d="M35.687,59.285c-1.691-5.592-4.168-9.795-5.533-9.383c-1.367,0.414-1.104,5.283,0.588,10.879
				c1.691,5.594,4.168,9.797,5.533,9.383C37.642,69.752,37.376,64.883,35.687,59.285z"/>
		</g>
	</g>
	<circle fill="#FBEF4F" cx="28.062" cy="44.071" r="6.729"/>
</g>
<g>
	<g>
		<g>
			
				<ellipse transform="matrix(0.975 0.2224 -0.2224 0.975 7.9036 -25.7934)" fill="#ECCEDC" cx="118.487" cy="22.199" rx="2.583" ry="10.584"/>
			
				<ellipse transform="matrix(0.9555 -0.2949 0.2949 0.9555 -1.786 33.3979)" fill="#ECCEDC" cx="109.847" cy="22.621" rx="2.583" ry="10.584"/>
			
				<ellipse transform="matrix(0.6802 -0.733 0.733 0.6802 12.4537 84.2306)" fill="#ECCEDC" cx="102.761" cy="27.843" rx="2.584" ry="10.584"/>
			
				<ellipse transform="matrix(0.2225 -0.9749 0.9749 0.2225 42.4567 126.7967)" fill="#ECCEDC" cx="100.723" cy="36.78" rx="2.583" ry="10.583"/>
			
				<ellipse transform="matrix(-0.2947 -0.9556 0.9556 -0.2947 88.2449 156.2714)" fill="#ECCEDC" cx="101.795" cy="45.568" rx="2.583" ry="10.583"/>
			<path fill="#ECCEDC" d="M104.891,50.078c3.976-4.285,8.045-6.973,9.09-6.004c1.047,0.973-1.327,5.23-5.303,9.518
				c-3.975,4.283-8.045,6.973-9.09,6.002C98.541,58.623,100.916,54.363,104.891,50.078z"/>
			
				<ellipse transform="matrix(-0.845 -0.5347 0.5347 -0.845 217.3927 115.3084)" fill="#ECCEDC" cx="125.405" cy="26.153" rx="2.583" ry="10.584"/>
			
				<ellipse transform="matrix(-0.4646 -0.8855 0.8855 -0.4646 164.244 162.8265)" fill="#ECCEDC" cx="131.349" cy="31.758" rx="2.584" ry="10.583"/>
			
				<ellipse transform="matrix(0.0404 -0.9992 0.9992 0.0404 87.7368 170.4633)" fill="#ECCEDC" cx="132.62" cy="39.552" rx="2.583" ry="10.582"/>
			
				<ellipse transform="matrix(0.5342 -0.8454 0.8454 0.5342 20.1736 131.6944)" fill="#ECCEDC" cx="129.591" cy="47.541" rx="2.583" ry="10.583"/>
			<path fill="#ECCEDC" d="M125.943,51.893c-2.715-5.176-5.938-8.836-7.201-8.174c-1.264,0.666-0.088,5.396,2.627,10.574
				c2.715,5.176,5.939,8.834,7.203,8.172C129.838,61.803,128.66,57.068,125.943,51.893z"/>
			
				<ellipse transform="matrix(0.9992 0.0405 -0.0405 0.9992 2.3044 -4.6344)" fill="#ECCEDC" cx="115.673" cy="54.628" rx="2.583" ry="10.582"/>
		</g>
		<g>
			
				<ellipse transform="matrix(0.994 -0.1094 0.1094 0.994 -1.8277 12.5638)" fill="#FCE3EE" cx="113.568" cy="22.936" rx="2.584" ry="10.584"/>
			
				<ellipse transform="matrix(0.8062 -0.5916 0.5916 0.8062 4.9719 67.5128)" fill="#FCE3EE" cx="105.544" cy="26.167" rx="2.584" ry="10.584"/>
			
				<ellipse transform="matrix(0.4025 -0.9154 0.9154 0.4025 29.488 112.0241)" fill="#FCE3EE" cx="100.562" cy="33.422" rx="2.584" ry="10.583"/>
			
				<ellipse transform="matrix(-0.1093 -0.994 0.994 -0.1093 70.3839 148.1391)" fill="#FCE3EE" cx="101.565" cy="42.534" rx="2.583" ry="10.582"/>
			<path fill="#FCE3EE" d="M103.932,48.402c4.711-3.457,9.215-5.33,10.057-4.182c0.846,1.152-2.289,4.887-7.001,8.348
				c-4.712,3.459-9.215,5.332-10.059,4.182C96.084,55.598,99.219,51.863,103.932,48.402z"/>
			
				<ellipse transform="matrix(-0.9155 -0.4023 0.4023 -0.9155 192.9386 150.0579)" fill="#FCE3EE" cx="112.226" cy="54.77" rx="2.583" ry="10.583"/>
			
				<ellipse transform="matrix(-0.9736 -0.2282 0.2282 -0.9736 234.0275 75.8644)" fill="#FCE3EE" cx="121.399" cy="24.403" rx="2.583" ry="10.584"/>
			
				<ellipse transform="matrix(-0.7291 -0.6844 0.6844 -0.7291 203.8136 136.1665)" fill="#FCE3EE" cx="128.853" cy="27.751" rx="2.584" ry="10.584"/>
			
				<ellipse transform="matrix(-0.2894 -0.9572 0.9572 -0.2894 137.7725 171.673)" fill="#FCE3EE" cx="132.609" cy="34.697" rx="2.583" ry="10.583"/>
			
				<ellipse transform="matrix(0.2281 -0.9736 0.9736 0.2281 60.0745 162.2518)" fill="#FCE3EE" cx="132.366" cy="43.238" rx="2.584" ry="10.583"/>
			
				<ellipse transform="matrix(0.6843 -0.7292 0.7292 0.6843 3.8234 109.6879)" fill="#FCE3EE" cx="128.579" cy="50.429" rx="2.583" ry="10.584"/>
			<path fill="#FCE3EE" d="M124.012,53.748c-1.691-5.592-4.168-9.795-5.533-9.383c-1.367,0.414-1.104,5.283,0.588,10.879
				c1.69,5.594,4.168,9.797,5.533,9.383C125.966,64.215,125.701,59.346,124.012,53.748z"/>
		</g>
	</g>
	<circle fill="#FBEF4F" cx="115.672" cy="38.293" r="6.728"/>
</g>
</svg>
