<?xml version="1.0" encoding="utf-8"?>
<!-- Generator: Adobe Illustrator 16.0.0, SVG Export Plug-In . SVG Version: 6.00 Build 0)  -->
<!DOCTYPE svg PUBLIC "-//W3C//DTD SVG 1.1//EN" "http://www.w3.org/Graphics/SVG/1.1/DTD/svg11.dtd">
<svg version="1.1" id="Layer_1" xmlns="http://www.w3.org/2000/svg" xmlns:xlink="http://www.w3.org/1999/xlink" x="0px" y="0px"
	 width="144px" height="144px" viewBox="0 0 144 144" enable-background="new 0 0 144 144" xml:space="preserve">
<g>
	<g>
		<g>
			
				<ellipse transform="matrix(0.975 0.2224 -0.2224 0.975 8.6083 -16.139)" fill="#EFEFF0" cx="75.965" cy="30.153" rx="6.042" ry="24.755"/>
			
				<ellipse transform="matrix(0.9556 -0.2948 0.2948 0.9556 -6.7029 17.8221)" fill="#EFEFF0" cx="55.754" cy="31.141" rx="6.043" ry="24.755"/>
			<path fill="#EFEFF0" d="M43.292,38.924c10.021,9.298,16.309,18.817,14.039,21.264c-2.271,2.445-12.235-3.104-22.259-12.404
				C25.047,38.486,18.763,28.966,21.031,26.52C23.302,24.073,33.266,29.627,43.292,38.924z"/>
			<path fill="#EFEFF0" d="M35.758,58.369c13.328,3.04,23.533,8.141,22.79,11.394c-0.745,3.253-12.148,3.425-25.479,0.389
				C19.74,67.11,9.536,62.008,10.278,58.754C11.02,55.501,22.426,55.329,35.758,58.369z"/>
			<path fill="#EFEFF0" d="M35.142,79.04c13.062-4.028,24.45-4.715,25.432-1.526c0.983,3.19-8.804,9.043-21.871,13.076
				c-13.062,4.03-24.451,4.715-25.433,1.526C12.283,88.926,22.076,83.075,35.142,79.04z"/>
			<path fill="#EFEFF0" d="M44.162,95.363c9.299-10.023,18.817-16.31,21.261-14.043c2.449,2.274-3.104,12.234-12.403,22.262
				c-9.297,10.019-18.817,16.31-21.261,14.039C29.31,115.35,34.865,105.387,44.162,95.363z"/>
			<path fill="#EFEFF0" d="M87.041,36.171C79.729,47.724,76.09,58.537,78.906,60.32c2.824,1.784,11.035-6.134,18.344-17.688
				c7.311-11.555,10.951-22.366,8.129-24.151C102.561,16.697,94.348,24.616,87.041,36.171z"/>
			<path fill="#EFEFF0" d="M103.242,47.161c-12.105,6.35-20.662,13.895-19.117,16.851c1.551,2.954,12.623,0.203,24.729-6.148
				c12.109-6.351,20.668-13.895,19.117-16.849C126.42,38.059,115.352,40.812,103.242,47.161z"/>
			<path fill="#EFEFF0" d="M109.266,64.704c-13.656-0.551-24.842,1.7-24.977,5.036c-0.133,3.335,10.824,6.487,24.49,7.039
				c13.658,0.555,24.844-1.698,24.98-5.033C133.893,68.411,122.93,65.258,109.266,64.704z"/>
			<path fill="#EFEFF0" d="M105.166,84.321c-11.553-7.31-22.365-10.95-24.146-8.132c-1.781,2.824,6.133,11.032,17.689,18.347
				c11.551,7.311,22.361,10.95,24.146,8.128C124.641,99.845,116.723,91.632,105.166,84.321z"/>
			<path fill="#EFEFF0" d="M93.406,99.607c-6.35-12.106-13.889-20.667-16.844-19.119c-2.959,1.559-0.207,12.623,6.143,24.733
				c6.354,12.107,13.895,20.663,16.848,19.114C102.514,122.787,99.76,111.713,93.406,99.607z"/>
			<path fill="#EFEFF0" d="M75.418,106.25c0.551-13.655-1.699-24.839-5.034-24.977c-3.336-0.132-6.487,10.829-7.04,24.488
				s1.697,24.847,5.032,24.979C71.713,130.879,74.861,119.909,75.418,106.25z"/>
		</g>
		<g>
			
				<ellipse transform="matrix(0.994 -0.1094 0.1094 0.994 -3.1007 7.244)" fill="#FFFFFF" cx="64.459" cy="31.877" rx="6.043" ry="24.756"/>
			
				<ellipse transform="matrix(0.8061 -0.5917 0.5917 0.8061 -14.4766 34.6795)" fill="#FFFFFF" cx="45.69" cy="39.434" rx="6.042" ry="24.757"/>
			
				<ellipse transform="matrix(0.4023 -0.9155 0.9155 0.4023 -31.2963 64.8707)" fill="#FFFFFF" cx="34.036" cy="56.405" rx="6.043" ry="24.754"/>
			
				<ellipse transform="matrix(-0.1092 -0.994 0.994 -0.1092 -36.896 122.3716)" fill="#FFFFFF" cx="36.383" cy="77.718" rx="6.042" ry="24.754"/>
			<path fill="#FFFFFF" d="M41.918,91.443c11.019-8.086,21.553-12.466,23.524-9.781c1.976,2.695-5.355,11.432-16.376,19.526
				c-11.02,8.091-21.554,12.471-23.527,9.781C23.562,108.274,30.896,99.538,41.918,91.443z"/>
			<path fill="#FFFFFF" d="M55.789,103.906c5.5-12.517,12.432-21.577,15.484-20.233c3.06,1.344,1.077,12.577-4.421,25.095
				c-5.5,12.513-12.432,21.576-15.486,20.232C48.308,127.657,50.289,116.425,55.789,103.906z"/>
			
				<ellipse transform="matrix(-0.9736 -0.2282 0.2282 -0.9736 155.3147 88.5743)" fill="#FFFFFF" cx="82.777" cy="35.309" rx="6.04" ry="24.756"/>
			<path fill="#FFFFFF" d="M95.805,39.004c-9.354,9.968-14.969,19.9-12.537,22.186c2.434,2.283,11.99-3.945,21.348-13.914
				c9.361-9.969,14.971-19.901,12.541-22.185C114.721,22.807,105.164,29.037,95.805,39.004z"/>
			<path fill="#FFFFFF" d="M107.246,53.604c-13.084,3.955-22.914,9.748-21.947,12.943c0.969,3.194,12.359,2.579,25.447-1.376
				c13.086-3.952,22.91-9.749,21.945-12.942C131.729,49.034,120.336,49.649,107.246,53.604z"/>
			<path fill="#FFFFFF" d="M109.805,73.48c-13.311-3.12-24.719-3.015-25.479,0.235c-0.76,3.251,9.41,8.413,22.725,11.534
				c13.307,3.12,24.715,3.014,25.477-0.233C133.291,81.764,123.115,76.601,109.805,73.48z"/>
			<path fill="#FFFFFF" d="M103.705,91.778c-9.967-9.356-19.898-14.972-22.182-12.541c-2.283,2.438,3.943,11.992,13.912,21.354
				c9.967,9.355,19.896,14.964,22.18,12.535C119.902,110.69,113.674,101.129,103.705,91.778z"/>
			<path fill="#FFFFFF" d="M88.885,103.948C84.93,90.868,79.137,81.037,75.945,82c-3.198,0.969-2.58,12.358,1.373,25.446
				c3.955,13.085,9.75,22.917,12.943,21.948C93.459,128.429,92.84,117.041,88.885,103.948z"/>
		</g>
	</g>
	<circle fill="#FBEF4F" cx="71.051" cy="68.592" r="15.739"/>
</g>
</svg>
